<?xml version="1.0" standalone="no"?>
<!DOCTYPE svg PUBLIC "-//W3C//DTD SVG 20010904//EN"
 "http://www.w3.org/TR/2001/REC-SVG-20010904/DTD/svg10.dtd">
<svg version="1.0" xmlns="http://www.w3.org/2000/svg"
 width="210.000000pt" height="80.000000pt" viewBox="0 0 210.000000 80.000000"
 preserveAspectRatio="xMidYMid meet">
<g transform="translate(0.000000,80.000000) scale(0.100000,-0.100000)"
fill="#000000" stroke="none">
<path d="M98 728 c-94 -30 -98 -32 -98 -60 0 -26 3 -28 40 -28 l40 0 0 -285 0
-284 -32 -9 c-26 -6 -34 -14 -36 -35 l-3 -27 165 0 166 0 0 25 c0 20 -7 26
-40 35 l-40 11 0 78 0 79 93 4 c106 5 154 25 207 84 42 48 59 90 66 162 9 85
-16 165 -70 218 -67 68 -145 76 -243 26 -23 -12 -45 -22 -48 -22 -3 0 -5 14
-5 30 0 27 -3 30 -32 29 -18 0 -77 -14 -130 -31z m287 -110 c69 -54 75 -205
11 -276 -27 -31 -42 -38 -93 -47 l-43 -7 0 176 0 176 49 0 c34 0 56 -6 76 -22z"/>
<path d="M1380 747 c-24 -12 -25 -17 -28 -117 l-3 -104 -59 -79 -60 -80 -2
189 -3 189 -62 3 -61 3 -101 -168 -101 -168 0 168 0 167 -32 0 c-18 -1 -76
-11 -128 -24 -87 -21 -95 -25 -98 -49 -3 -23 1 -25 47 -32 l51 -7 0 -204 0
-204 69 0 70 0 80 133 c120 199 110 197 111 20 l0 -153 73 0 73 0 134 172 c74
95 143 189 153 210 46 93 -33 180 -123 135z"/>
<path d="M1717 746 c-67 -19 -126 -63 -162 -121 -28 -45 -30 -56 -30 -139 0
-74 4 -99 22 -132 28 -53 79 -97 137 -119 62 -24 198 -17 279 14 l57 22 0 50
c0 27 -1 49 -2 49 -2 0 -30 -11 -63 -25 -75 -31 -122 -32 -165 -2 -45 30 -70
75 -77 139 -10 96 31 184 97 207 l30 10 0 -69 c0 -80 9 -90 85 -90 119 0 128
136 13 196 -42 22 -162 27 -221 10z"/>
</g>
</svg>
